<?xml version="1.0" encoding="UTF-8" standalone="no"?>
<svg
   version="1.1"
   id="svg5033"
   xml:space="preserve"
   width="1920.0002"
   height="1080"
   viewBox="0 0 1920.0002 1080"
   sodipodi:docname="void-dark-openbsd-scalable.svg"
   inkscape:version="1.3 (0e150ed6c4, 2023-07-21)"
   inkscape:export-filename="/home/fjall/1577101987penguin-silhouette-3-freesvg.org3.png"
   inkscape:export-xdpi="96"
   inkscape:export-ydpi="96"
   xmlns:inkscape="http://www.inkscape.org/namespaces/inkscape"
   xmlns:sodipodi="http://sodipodi.sourceforge.net/DTD/sodipodi-0.dtd"
   xmlns:xlink="http://www.w3.org/1999/xlink"
   xmlns="http://www.w3.org/2000/svg"
   xmlns:svg="http://www.w3.org/2000/svg"
   xmlns:rdf="http://www.w3.org/1999/02/22-rdf-syntax-ns#"
   xmlns:cc="http://creativecommons.org/ns#"
   xmlns:dc="http://purl.org/dc/elements/1.1/"><metadata
     id="metadata5039"><rdf:RDF><cc:Work
         rdf:about=""><dc:format>image/svg+xml</dc:format><dc:type
           rdf:resource="http://purl.org/dc/dcmitype/StillImage" /></cc:Work></rdf:RDF></metadata><defs
     id="defs5037"><marker
       style="overflow:visible"
       id="Arrow1Lstart"
       refX="0"
       refY="0"
       orient="auto"
       inkscape:stockid="Arrow1Lstart"
       inkscape:isstock="true"><path
         transform="matrix(0.8,0,0,0.8,10,0)"
         style="fill:#c53d3d;fill-opacity:0.795004;fill-rule:evenodd;stroke:none;stroke-width:1pt;stroke-opacity:1"
         d="M 0,0 5,-5 -12.5,0 5,5 Z"
         id="path2155" /></marker><clipPath
       clipPathUnits="userSpaceOnUse"
       id="clipPath5049"><path
         d="M 0,600 H 600 V 0 H 0 Z"
         id="path5047"
         inkscape:connector-curvature="0" /></clipPath><linearGradient
       x1="112.49854"
       y1="6.1372099"
       x2="112.49853"
       y2="129.3468"
       id="path1082_2_"
       gradientUnits="userSpaceOnUse"
       gradientTransform="translate(287,-83)"><stop
         id="stop193"
         style="stop-color:#ffffff;stop-opacity:0"
         offset="0" /><stop
         id="stop195"
         style="stop-color:#ffffff;stop-opacity:0.27450982"
         offset="1" /><midPointStop
         offset="0"
         style="stop-color:#FFFFFF"
         id="midPointStop197" /><midPointStop
         offset="0.5"
         style="stop-color:#FFFFFF"
         id="midPointStop199" /><midPointStop
         offset="1"
         style="stop-color:#000000"
         id="midPointStop201" /></linearGradient><linearGradient
       x1="541.33502"
       y1="104.50665"
       x2="606.91248"
       y2="303.14029"
       id="linearGradient2544"
       xlink:href="#path1082_2_"
       gradientUnits="userSpaceOnUse"
       gradientTransform="matrix(-0.3937741,0,0,0.393752,357.51969,122.00151)" /><linearGradient
       id="linearGradient3388"><stop
         id="stop3390"
         style="stop-color:#000000;stop-opacity:0"
         offset="0" /><stop
         id="stop3392"
         style="stop-color:#000000;stop-opacity:0.37113401"
         offset="1" /></linearGradient><linearGradient
       x1="490.72305"
       y1="237.72447"
       x2="490.72305"
       y2="183.9644"
       id="linearGradient4416"
       xlink:href="#linearGradient3388"
       gradientUnits="userSpaceOnUse"
       gradientTransform="matrix(0.749107,0,0,0.749107,-35.459862,91.44108)" /></defs><sodipodi:namedview
     pagecolor="#ffffff"
     bordercolor="#666666"
     borderopacity="1"
     objecttolerance="10"
     gridtolerance="10"
     guidetolerance="10"
     inkscape:pageopacity="0"
     inkscape:pageshadow="2"
     inkscape:window-width="1920"
     inkscape:window-height="1054"
     id="namedview5035"
     showgrid="false"
     inkscape:zoom="0.56884856"
     inkscape:cx="845.56776"
     inkscape:cy="519.47042"
     inkscape:window-x="0"
     inkscape:window-y="26"
     inkscape:window-maximized="1"
     inkscape:current-layer="g5041"
     inkscape:document-rotation="0"
     inkscape:snap-global="true"
     showguides="true"
     inkscape:guide-bbox="true"
     fit-margin-top="0"
     fit-margin-left="0"
     fit-margin-right="0"
     fit-margin-bottom="0"
     inkscape:snap-intersection-paths="true"
     inkscape:showpageshadow="0"
     inkscape:pagecheckerboard="0"
     inkscape:deskcolor="#d1d1d1"><inkscape:grid
       type="xygrid"
       id="grid997"
       originx="633.39856"
       originy="-125.38409"
       spacingy="1"
       spacingx="1"
       units="px"
       visible="false" /></sodipodi:namedview><g
     id="g5041"
     inkscape:groupmode="layer"
     inkscape:label="penguin-clipart-publicdomainvectors.org"
     transform="matrix(1.3333333,0,0,-1.3333333,633.39858,674.61591)"><g
       id="g956"
       transform="translate(46.384326,0.71141601)" /><g
       id="g944"
       transform="translate(96.725563,0.71141601)" /><g
       id="g11"><rect
         style="fill:#ebdbb2;fill-opacity:1;fill-rule:nonzero;stroke-width:78.7272;stroke-linecap:round;stroke-linejoin:round;paint-order:stroke markers fill"
         id="rect835"
         width="1440"
         height="810"
         x="-475.04874"
         y="-505.96194"
         transform="scale(1,-1)" /><path
         style="fill:#8ec07c;fill-opacity:1;stroke:none;stroke-width:2.42952;stroke-linejoin:round;stroke-miterlimit:4;stroke-dasharray:none;stroke-opacity:1;paint-order:stroke markers fill"
         d="m -475.04895,124.37847 v -18.36475 h 1092.3135 c -0.20183,0.76636 -0.33105,1.52099 -0.33105,2.1958 v 0.38965 c 0,2.60451 1.45579,6.18386 3.70166,8.13135 2.81243,2.43812 5.74993,2.74658 7.76367,2.74658 h 16.86035 c 0.45017,1.644 0.93811,3.27704 1.45313,4.90137 z"
         id="path1009" /><path
         style="fill:#83a598;fill-opacity:1;stroke:none;stroke-width:2.08611;stroke-linejoin:round;stroke-miterlimit:4;stroke-dasharray:none;stroke-opacity:1;paint-order:stroke markers fill"
         d="M -475.04895,106.01372 V 87.648974 H 626.68057 l -8.49756,15.788086 0.31641,-0.42627 c -0.55438,0.93986 -0.96641,1.9836 -1.23487,3.00293 z"
         id="path1011" /><path
         style="fill:#fabd2f;fill-opacity:1;stroke:none;stroke-width:1.69937;stroke-linejoin:round;stroke-miterlimit:4;stroke-dasharray:none;stroke-opacity:1;paint-order:stroke markers fill"
         d="M -475.04895,87.648974 V 69.284228 H 636.56533 l -9.88476,18.364746 z"
         id="path1013" /><path
         style="fill:#fb4934;fill-opacity:1;stroke:none;stroke-width:1.23139;stroke-linejoin:round;stroke-miterlimit:4;stroke-dasharray:none;stroke-opacity:1;paint-order:stroke markers fill"
         d="M -475.04895,69.284228 V 50.920946 H 646.60684 c -0.7243,2.277026 -1.40657,4.572217 -1.99805,6.905274 -0.0703,0.04203 -0.12998,0.03932 -0.20068,0.0835 -1.98258,1.239189 -3.43195,3.071537 -4.26563,4.738769 l 0.12891,-0.250488 -3.70606,6.886231 z"
         id="path1015" /><path
         d="m 762.02516,199.51636 c -23.42029,-0.0497 -46.23435,-7.44885 -65.22582,-21.15425 l 25.40899,-25.409 c 11.98814,7.33334 25.76363,11.2252 39.81683,11.24909 42.27882,9e-5 76.55258,-34.27367 76.55249,-76.552498 -0.0339,-14.048195 -3.9327,-27.81621 -11.26959,-39.796313 l 25.45715,-25.45716 c 13.70103,19.002468 21.09071,41.826753 21.12662,65.253473 0,61.782238 -50.08444,111.866658 -111.86667,111.866658 z"
         fill="#abc2ab"
         id="path1"
         style="fill:#acc3ad;fill-opacity:0.796078;stroke:#282828;stroke-width:1.5;stroke-dasharray:none;stroke-opacity:1" /><path
         d="m 827.25098,-3.0627046 -25.409,25.4089936 c -11.98814,-7.333329 -25.76363,-11.2252 -39.81682,-11.249087 -42.27883,-8.5e-5 -76.55259,34.273688 -76.5525,76.5525 0.0339,14.048198 3.93269,27.816218 11.2696,39.796308 l -25.45717,25.45717 c -13.70105,-19.00246 -21.0907,-41.82675 -21.12659,-65.253478 0,-61.782238 50.08442,-111.866658 111.86666,-111.866658 23.4203,0.04975 46.23434,7.448848 65.22582,21.1542514 z"
         fill="#478061"
         id="path2"
         style="fill:#458161;fill-opacity:1;stroke:#282828;stroke-width:1.5;stroke-dasharray:none;stroke-opacity:1" /><path
         id="circle2"
         style="fill:#acc3ad;fill-opacity:0.796078;stroke:#282828;stroke-width:1.5;stroke-dasharray:none;stroke-opacity:1"
         d="m 797.62196,87.649699 a 35.614692,35.614692 0 0 0 -35.6147,-35.614692 35.614692,35.614692 0 0 0 -35.61468,35.614692 35.614692,35.614692 0 0 0 35.61468,35.614691 35.614692,35.614692 0 0 0 35.6147,-35.614691 z" /><path
         d="m 658.46068,66.840591 c -1.2199,-0.871335 -2.33085,-1.307002 -3.33289,-1.307002 h -4.31315 c -0.60995,0 -1.08918,0.10891 -1.43771,0.326739 -0.34853,0.217845 -0.63172,0.544596 -0.84957,0.980263 l -22.08852,41.040219 c -0.0872,0.0872 -0.13068,0.19607 -0.13068,0.32676 v 0.3921 c 0,0.43568 0.1525,0.78421 0.45747,1.04563 0.34853,0.30496 0.89312,0.45743 1.63376,0.45743 h 26.85913 c 1.43772,0 2.37441,-0.43566 2.81007,-1.307 l 13.59295,-26.205625 38.09942,26.205625 c 1.26345,0.87134 2.59225,1.307 3.98641,1.307 h 4.24778 c 0.56639,0 0.84957,-0.23961 0.84957,-0.71885 0,-0.3921 -0.34852,-0.87134 -1.04559,-1.43771 z"
         fill="#000000"
         id="path3"
         style="fill:#000000;fill-opacity:1;stroke:#282828;stroke-width:1.5;stroke-dasharray:none;stroke-opacity:1" /><path
         d="m 717.73577,65.533589 c -2.26549,0 -4.26956,0.348531 -6.01225,1.045606 -1.7427,0.740638 -3.20219,1.742682 -4.37852,3.006132 -1.1763,1.263451 -2.06942,2.744725 -2.67936,4.443833 -0.60993,1.742691 -0.9149,3.61608 -0.9149,5.620179 0,2.570453 0.43567,5.097344 1.30702,7.580662 0.87133,2.483328 2.06942,4.85774 3.59429,7.123235 1.56841,2.265493 3.39821,4.356713 5.48943,6.273664 2.13479,1.91695 4.44385,3.57251 6.92718,4.96665 2.52691,1.39414 5.1845,2.48333 7.97278,3.26754 2.78831,0.82776 5.64195,1.24164 8.56094,1.24164 h 32.02182 c 2.30908,0 4.33493,-0.34852 6.07765,-1.04559 1.78624,-0.69708 3.2675,-1.67735 4.44383,-2.9408 1.1763,-1.21986 2.06944,-2.67936 2.67937,-4.37847 0.60995,-1.69913 0.91492,-3.550731 0.91492,-5.554811 0,-2.570468 -0.45745,-5.119144 -1.37236,-7.646034 -0.87136,-2.483329 -2.09124,-4.85774 -3.65965,-7.123224 -1.56842,-2.265484 -3.42002,-4.3785 -5.55481,-6.339025 -2.13479,-1.916951 -4.46564,-3.594278 -6.99253,-5.03199 -2.52688,-1.394149 -5.18447,-2.505119 -7.97278,-3.332892 -2.78829,-0.784211 -5.59837,-1.176305 -8.43025,-1.176305 z m 39.34111,26.728433 c 1.43773,3.049697 2.1566,5.336967 2.1566,6.861817 0,1.263441 -0.45748,2.134791 -1.3724,2.614031 -0.87135,0.47924 -2.17835,0.71886 -3.92102,0.71886 h -8.8877 c -1.26345,0 -2.43976,-0.17428 -3.52896,-0.52281 -1.04561,-0.30497 -2.02585,-0.84957 -2.94077,-1.63376 -0.91491,-0.784231 -1.80803,-1.829841 -2.67936,-3.136851 -0.82777,-1.30701 -1.67732,-2.940773 -2.54867,-4.901287 l -3.13685,-7.123234 c -1.65555,-3.703206 -2.48331,-6.491504 -2.48331,-8.364893 0,-1.26344 0.37031,-2.178349 1.11095,-2.744714 0.74066,-0.522804 1.80804,-0.78421 3.20218,-0.78421 h 8.95304 c 1.35059,0 2.59226,0.196052 3.725,0.588147 1.13276,0.435677 2.22194,1.110971 3.26754,2.025879 1.04561,0.914908 2.04766,2.134786 3.00613,3.659633 0.95847,1.524847 1.93873,3.398237 2.94078,5.620158 z"
         fill="#000000"
         id="path4"
         style="fill:#000000;fill-opacity:1;stroke:#282828;stroke-width:1.5;stroke-dasharray:none;stroke-opacity:1" /><path
         d="m 779.146,65.533589 c -0.7842,0 -1.17631,0.261396 -1.17631,0.784199 0,0.261396 0.0653,0.588158 0.19606,0.980263 l 18.36352,41.105569 c 0.52282,1.13275 1.35059,1.69911 2.48334,1.69911 h 22.48063 c 0.82777,0 1.24165,-0.28317 1.24165,-0.84953 0,-0.26142 -0.0872,-0.54461 -0.26137,-0.84958 L 804.17531,67.298051 c -0.52281,-1.176315 -1.35059,-1.764462 -2.48334,-1.764462 z"
         fill="#000000"
         id="path5"
         style="fill:#000000;fill-opacity:1;stroke:#282828;stroke-width:1.5;stroke-dasharray:none;stroke-opacity:1" /><path
         d="m 811.2771,65.533589 c -0.78421,0 -1.17631,0.261396 -1.17631,0.784199 0,0.261396 0.0653,0.588158 0.19606,0.980263 l 18.36352,41.105569 c 0.52281,1.13275 1.35059,1.69911 2.48334,1.69911 h 52.54195 c 2.26549,0 4.26956,-0.34852 6.01225,-1.04559 1.74268,-0.69708 3.20218,-1.67735 4.37848,-2.9408 1.17631,-1.21986 2.06945,-2.67936 2.67939,-4.37847 0.60993,-1.69913 0.91491,-3.550731 0.91491,-5.554811 0,-2.657604 -0.45746,-5.271633 -1.37236,-7.842087 -0.9149,-2.526891 -2.17837,-4.923083 -3.79036,-7.188579 -1.5684,-2.265483 -3.44178,-4.356706 -5.62013,-6.273659 -2.1348,-1.916951 -4.46564,-3.572508 -6.99254,-4.966645 -2.48332,-1.350587 -5.09736,-2.417985 -7.84207,-3.202185 -2.74474,-0.78421 -5.48947,-1.176315 -8.2342,-1.176315 z m 56.85508,26.728433 c 1.39415,3.136827 2.09123,5.424097 2.09123,6.861817 0,1.263441 -0.43567,2.134791 -1.30701,2.614031 -0.87135,0.47924 -2.13479,0.71886 -3.79035,0.71886 H 851.85986 L 838.92043,73.244971 h 13.20085 c 1.307,0 2.52688,0.196052 3.65963,0.588147 1.13275,0.435677 2.20015,1.110961 3.20218,2.025879 1.04561,0.958482 2.04766,2.178348 3.00613,3.659633 1.00204,1.524847 2.00409,3.398237 3.00612,5.620158 z"
         fill="#000000"
         id="path6"
         style="fill:#000000;fill-opacity:1;stroke:#282828;stroke-width:1.5;stroke-dasharray:none;stroke-opacity:1" /></g></g></svg>
